<?xml version="1.0" encoding="UTF-8" standalone="no"?>
<!DOCTYPE svg PUBLIC "-//W3C//DTD SVG 1.1//EN" "http://www.w3.org/Graphics/SVG/1.1/DTD/svg11.dtd">
<!-- Created with Vectornator (http://vectornator.io/) -->
<svg height="100%" stroke-miterlimit="10" style="fill-rule:nonzero;clip-rule:evenodd;stroke-linecap:round;stroke-linejoin:round;" version="1.1" viewBox="0 0 617.545 263.395" width="100%" xml:space="preserve" xmlns="http://www.w3.org/2000/svg" xmlns:vectornator="http://vectornator.io" xmlns:xlink="http://www.w3.org/1999/xlink">
<defs/>
<g id="Layer-1" vectornator:layerName="Layer 1">
<g opacity="1" vectornator:layerName="Group 3">
<path d="M181.641 188.327C206.631 188.327 226.181 169.117 226.181 142.767C226.181 116.247 206.631 97.0374 181.641 97.0374C156.481 97.0374 136.931 116.247 136.931 142.767C136.931 169.117 156.481 188.327 181.641 188.327ZM151.551 142.767C151.551 123.217 163.961 109.787 181.641 109.787C199.151 109.787 211.561 123.217 211.561 142.767C211.561 162.147 199.151 175.577 181.641 175.577C163.961 175.577 151.551 162.147 151.551 142.767Z" fill="#182525" fill-rule="nonzero" opacity="1" stroke="none"/>
<path d="M246.411 186.967L260.691 186.967L260.862 136.615C260.862 118.595 269.79 110.216 284.75 110.216C298.18 110.216 309.311 118.287 309.311 134.947L309.311 186.967L323.591 186.967L323.591 131.547C323.591 109.787 311.221 96.8982 284.8 97.0321C258.379 97.1659 246.746 108.18 246.739 131.697C246.732 155.214 246.411 186.967 246.411 186.967Z" fill="#182525" fill-rule="nonzero" opacity="1" stroke="none"/>
<path d="M347.631 186.967L418.351 186.967L418.351 174.557L366.331 174.557L417.331 108.257L417.331 98.3974L348.651 98.3974L348.651 110.807L398.631 110.807L347.631 177.277L347.631 186.967Z" fill="#182525" fill-rule="nonzero" opacity="1" stroke="none"/>
<path d="M444.971 187.987C450.751 187.987 455.341 183.567 455.341 177.617C455.341 171.667 450.751 167.247 444.971 167.247C439.021 167.247 434.601 171.667 434.601 177.617C434.601 183.567 439.021 187.987 444.971 187.987Z" fill="#182525" fill-rule="nonzero" opacity="1" stroke="none"/>
<path d="M504.301 187.987C544.873 188.197 548.777 181.37 549.407 156.994C549.919 137.18 549.861 131.207 549.861 131.207C549.861 109.787 536.601 97.0374 513.651 97.0374C491.891 97.0374 477.101 108.427 475.061 126.277L490.021 126.277C491.721 116.077 500.051 109.787 513.141 109.787C527.421 109.787 535.751 117.097 535.751 131.207L535.751 135.627L507.361 135.627C485.941 135.627 472.511 145.827 472.511 161.807C472.511 177.277 485.432 187.89 504.301 187.987ZM486.961 161.297C486.961 152.287 494.441 146.677 508.211 146.677L535.751 146.677L535.369 160.127C535.369 175.427 523.001 174.917 506.341 174.917C494.441 174.917 486.961 170.137 486.961 161.297Z" fill="#182525" fill-rule="nonzero" opacity="1" stroke="none"/>
<path d="M576.211 186.967L590.491 186.967L590.491 98.3974L576.211 98.3974L576.211 186.967ZM572.981 72.5574C572.981 78.3374 577.741 82.7574 583.351 82.7574C588.961 82.7574 593.721 78.3374 593.721 72.5574C593.721 66.7774 588.961 62.3574 583.351 62.3574C577.741 62.3574 572.981 66.7774 572.981 72.5574Z" fill="#182525" fill-rule="nonzero" opacity="1" stroke="none"/>
</g>
<g opacity="1" vectornator:layerName="Group 2">
<path d="M77.0255 188.197C100.995 188.197 119.695 169.157 119.695 142.637C119.695 115.947 100.995 96.9074 77.0255 96.9074C63.5955 96.9074 51.8655 103.027 45.7455 112.037L45.7455 62.7374L31.4655 62.7374C31.4655 62.7374 31.4655 118.53 31.4655 143.212C31.4655 167.895 48.2754 188.197 77.0255 188.197ZM45.2355 142.637C45.2355 123.087 57.6455 109.657 75.1555 109.657C92.8355 109.657 105.075 123.087 105.075 142.637C105.075 162.017 92.8355 175.447 75.1555 175.447C57.6455 175.447 45.2355 162.017 45.2355 142.637Z" fill="#182525" fill-rule="nonzero" opacity="1" stroke="none"/>
</g>
</g>
</svg>
